<svg xmlns="http://www.w3.org/2000/svg" width="249" height="39" viewBox="0 0 249 39">
  <path fill="#333332" d="M8.5078125,31.3222656 C10.4414062,31.3222656 11.9399414,30.6293945 13.2128906,29.5336914 L13.2128906,29.5336914 L13.7285156,31.0161133 L15.3076172,31.0161133 L15.3076172,7.66796875 L15.1464844,7.66796875 L12.8100586,7.99023438 L12.8100586,14.2905273 C11.8271484,14.097168 10.8120117,13.9521484 9.71630859,13.9521484 C6.83203125,13.9521484 4.73730469,14.8706055 3.3515625,16.4013672 C1.96582031,17.9321289 1.2890625,20.0268555 1.2890625,22.3955078 C1.2890625,24.8447266 1.99804688,27.0683594 3.25488281,28.6796875 C4.51171875,30.3071289 6.31640625,31.3222656 8.5078125,31.3222656 Z M8.84619141,29.0019531 C7.05761719,29.0019531 5.80078125,28.2285156 4.97900391,27.0522461 C4.15722656,25.8759766 3.78662109,24.2807617 3.78662109,22.6049805 C3.78662109,20.4941406 4.3828125,18.8989258 5.4140625,17.8354492 C6.42919922,16.7719727 7.86328125,16.2402344 9.5390625,16.2402344 C10.5864258,16.2402344 11.6821289,16.4658203 12.8100586,16.9008789 L12.8100586,16.9008789 L12.8100586,27.1811523 C11.9238281,28.421875 10.5219727,29.0019531 8.84619141,29.0019531 Z M26.9414062,31.3222656 C28.4882812,31.3222656 30.0029297,30.9838867 31.7431641,30.1298828 L31.7431641,30.1298828 L31.7431641,27.8256836 L31.6948242,27.8095703 C30.1640625,28.5830078 28.6816406,29.0019531 27.1831055,29.0019531 C23.9926758,29.0019531 21.8818359,26.762207 21.65625,23.265625 L21.65625,23.265625 L32.081543,23.265625 L32.081543,21.0097656 C32.081543,17.1586914 30.6474609,13.9521484 26.3613281,13.9521484 C21.4306641,13.9521484 19.1748047,17.5776367 19.1748047,22.4277344 C19.1748047,27.8901367 22.0913086,31.3222656 26.9414062,31.3222656 Z M29.6323242,21.0097656 L21.769043,21.0097656 C22.171875,18.3349609 23.6865234,16.2724609 26.3129883,16.2724609 C28.9233398,16.2724609 29.6000977,18.3994141 29.6323242,21.0097656 L29.6323242,21.0097656 Z M38.4785156,31.3222656 C40.1381836,31.3222656 41.7495117,30.887207 42.9418945,29.96875 C44.1342773,29.0664062 44.9077148,27.6645508 44.9077148,25.730957 C44.9077148,24.7641602 44.7304688,23.9746094 44.3920898,23.378418 C43.6992188,22.1860352 42.6357422,21.4770508 41.4272461,21.0581055 L41.4272461,21.0581055 L39.7514648,20.4780273 C38.7202148,20.1074219 37.9467773,19.7045898 37.9467773,18.9150391 C37.9467773,18.3994141 38.269043,18.0288086 38.7524414,17.7871094 C39.2358398,17.5454102 39.8964844,17.4326172 40.6054688,17.4326172 C41.7011719,17.4326172 42.5874023,17.6743164 43.4897461,18.109375 L43.4897461,18.109375 L43.6831055,17.9643555 L43.6831055,14.5805664 C42.7001953,14.2099609 41.25,13.9521484 39.9609375,13.9521484 C38.4301758,13.9521484 36.9960938,14.3066406 35.9326172,15.1123047 C34.8691406,15.9179688 34.1762695,17.1748047 34.1762695,18.9311523 C34.1762695,19.8818359 34.3535156,20.6230469 34.7080078,21.1708984 C35.4008789,22.2827148 36.4804688,22.9111328 37.7050781,23.265625 C38.3012695,23.4428711 38.8652344,23.6362305 39.3969727,23.8295898 C40.4282227,24.2163086 41.2177734,24.699707 41.2177734,25.7792969 C41.2177734,26.5043945 40.8632812,26.987793 40.3476562,27.2939453 C39.815918,27.6000977 39.1391602,27.7290039 38.4462891,27.7290039 C37.6567383,27.7290039 36.8510742,27.5678711 36.1420898,27.3261719 C35.4169922,27.0844727 34.7724609,26.8105469 34.3051758,26.5527344 L34.3051758,26.5527344 L34.1762695,26.6494141 L34.1762695,30.1782227 C35.3203125,30.9033203 36.8027344,31.3222656 38.4785156,31.3222656 Z M54.8173828,31.3222656 C57.2666016,31.3222656 59.3452148,30.371582 60.7954102,28.8085938 C62.2456055,27.2617188 63.0834961,25.0703125 63.0834961,22.6049805 C63.0834961,20.171875 62.277832,18.0288086 60.8598633,16.4658203 C59.4418945,14.902832 57.4116211,13.9521484 54.9624023,13.9521484 C52.5292969,13.9521484 50.4667969,14.902832 49.0004883,16.4658203 C47.5341797,18.0288086 46.6801758,20.2041016 46.6801758,22.7016602 C46.6801758,25.1025391 47.4858398,27.277832 48.9199219,28.824707 C50.3378906,30.371582 52.3681641,31.3222656 54.8173828,31.3222656 Z M54.9785156,27.6967773 C53.4799805,27.6967773 52.3520508,27.1005859 51.6269531,26.1660156 C50.9018555,25.2314453 50.53125,23.9584961 50.53125,22.5566406 C50.53125,21.1386719 50.9018555,19.8979492 51.6269531,18.9956055 C52.3520508,18.109375 53.4477539,17.5776367 54.8818359,17.5776367 C56.3642578,17.5776367 57.4438477,18.1416016 58.1689453,19.0761719 C58.8779297,20.0107422 59.2163086,21.2998047 59.2163086,22.7177734 C59.2163086,24.1518555 58.8779297,25.3925781 58.1689453,26.2788086 C57.4599609,27.1650391 56.3964844,27.6967773 54.9785156,27.6967773 Z M73.8793945,31.3222656 C75.3134766,31.3222656 77.1503906,31.0483398 78.6328125,30.3232422 L78.6328125,30.3232422 L78.6328125,26.6655273 L78.487793,26.6171875 C77.1987305,27.3100586 75.7163086,27.7128906 74.2983398,27.7128906 C73.0253906,27.7128906 71.7685547,27.3745117 70.8178711,26.5366211 C69.8671875,25.7148438 69.2387695,24.4418945 69.2387695,22.5727539 C69.2387695,20.7519531 69.8349609,19.4951172 70.7373047,18.7055664 C71.6396484,17.9160156 72.8481445,17.5776367 74.0727539,17.5776367 C75.5551758,17.5776367 77.1342773,18.0610352 78.487793,18.7861328 L78.487793,18.7861328 L78.6328125,18.7216797 L78.6328125,14.9511719 C77.9077148,14.5805664 77.0537109,14.3388672 76.199707,14.1777344 C75.3457031,14.0166016 74.4916992,13.9521484 73.7827148,13.9521484 C71.4624023,13.9521484 69.3676758,14.7094727 67.8369141,16.1757812 C66.2900391,17.6420898 65.3393555,19.8334961 65.3393555,22.6694336 C65.3393555,25.5214844 66.3061523,27.6806641 67.8530273,29.1308594 C69.3999023,30.5810547 71.5429688,31.3222656 73.8793945,31.3222656 Z M83.2412109,12.0830078 C83.8696289,12.0830078 84.4335938,11.8413086 84.8364258,11.4384766 C85.2231445,11.0517578 85.480957,10.5039062 85.480957,9.87548828 C85.480957,9.24707031 85.2231445,8.71533203 84.8364258,8.3125 C84.4335938,7.90966797 83.8696289,7.66796875 83.2412109,7.66796875 C82.612793,7.66796875 82.0649414,7.90966797 81.6621094,8.3125 C81.2592773,8.71533203 81.0175781,9.24707031 81.0175781,9.87548828 C81.0175781,10.5039062 81.2592773,11.0517578 81.6621094,11.4384766 C82.0649414,11.8413086 82.612793,12.0830078 83.2412109,12.0830078 Z M85.1425781,31 L85.1425781,14.2744141 L81.3720703,14.2744141 L81.3720703,31 L85.1425781,31 Z M101.642578,31.3222656 L103.350586,28.1640625 C102.625488,28.019043 102.013184,27.7773438 101.578125,27.390625 C101.126953,27.0039062 100.869141,26.4560547 100.869141,25.6665039 L100.869141,25.6665039 L100.869141,19.4467773 C100.869141,17.4003906 100.144043,16.0307617 99,15.1606445 C97.8398438,14.2905273 96.2929688,13.9360352 94.6333008,13.9360352 C92.5224609,13.9360352 90.2827148,14.5161133 88.5263672,15.3540039 L88.5263672,15.3540039 L89.4125977,18.6411133 C90.7661133,18.0126953 92.4580078,17.4970703 93.8920898,17.4970703 C94.7944336,17.4970703 95.6000977,17.6904297 96.1962891,18.1738281 C96.7924805,18.6572266 97.1630859,19.4628906 97.1630859,20.6230469 L97.1630859,20.6230469 L97.1630859,21.4609375 C95.9277344,21.3535156 94.9945068,21.335612 94.1955566,21.332628 L93.730957,21.3320312 C91.4912109,21.3320312 90.0249023,21.7670898 89.1225586,22.5566406 C88.2202148,23.3461914 87.8657227,24.5224609 87.8657227,25.9887695 C87.8657227,28.2285156 88.6713867,29.5498047 89.7670898,30.3232422 C90.8466797,31.0966797 92.2163086,31.3222656 93.3764648,31.3222656 C94.4560547,31.3222656 95.2456055,31.1289062 95.9545898,30.8066406 C96.6474609,30.5004883 97.2275391,30.0654297 97.8881836,29.565918 C99.1289062,30.9355469 100.417969,31.3222656 101.642578,31.3222656 L101.642578,31.3222656 Z M93.9887695,28.2446289 C92.6191406,28.2446289 91.6362305,27.4873047 91.6362305,26.1176758 C91.6362305,25.1347656 92.1518555,24.6513672 93.0864258,24.4257812 C94.0209961,24.2001953 95.390625,24.2324219 97.1469727,24.2324219 L97.1469727,24.2324219 L97.1469727,25.2475586 C97.1469727,26.5527344 96.5991211,27.3100586 95.9223633,27.7290039 C95.2456055,28.1479492 94.4560547,28.2446289 93.9887695,28.2446289 Z M109.699219,31 L109.699219,7.66796875 L109.21582,7.66796875 L105.928711,7.99023438 L105.928711,31 L109.699219,31 Z M121.703613,31.3222656 C123.137695,31.3222656 124.974609,31.0483398 126.457031,30.3232422 L126.457031,30.3232422 L126.457031,26.6655273 L126.312012,26.6171875 C125.022949,27.3100586 123.524414,27.7128906 122.106445,27.7128906 C121.026855,27.7128906 119.947266,27.4711914 119.061035,26.8911133 C118.158691,26.3110352 117.46582,25.3925781 117.159668,24.0390625 L117.159668,24.0390625 L127.311035,24.0390625 L127.311035,21.5253906 C127.311035,19.2050781 126.74707,17.5615234 125.941406,16.449707 C125.135742,15.3378906 124.056152,14.6933594 123.073242,14.3549805 C122.090332,14.0166016 121.139648,13.9521484 120.60791,13.9521484 C118.722656,13.9521484 116.837402,14.7094727 115.435547,16.1757812 C114.017578,17.6582031 113.083008,19.8173828 113.083008,22.637207 C113.083008,25.5375977 114.082031,27.7290039 115.661133,29.1630859 C117.240234,30.597168 119.383301,31.3222656 121.703613,31.3222656 Z M123.862793,21.0581055 L117.111328,21.0581055 C117.353027,19.8496094 117.852539,18.9794922 118.513184,18.3994141 C119.157715,17.8354492 119.947266,17.5776367 120.720703,17.5776367 C121.445801,17.5776367 122.187012,17.8193359 122.76709,18.3833008 C123.347168,18.9633789 123.782227,19.8334961 123.862793,21.0581055 L123.862793,21.0581055 Z M142.731445,31.3222656 L143.762695,29.1147461 C142.908691,28.8569336 141.845215,28.1479492 140.813965,27.2617188 C139.782715,26.3754883 138.783691,25.328125 138.010254,24.409668 C137.236816,23.5073242 136.705078,22.7338867 136.624512,22.3632812 L136.624512,22.3632812 L143.424316,14.2744141 L140.233887,14.2744141 L133.595215,22.2021484 L133.595215,7.66796875 L133.434082,7.66796875 L131.097656,8.10302734 L131.097656,31 L133.595215,31 L133.595215,22.5083008 C133.627441,22.6049805 133.740234,22.7983398 133.933594,23.1044922 C134.11084,23.4106445 134.352539,23.7651367 134.658691,24.184082 C135.254883,25.0380859 136.092773,26.1015625 137.01123,27.1328125 C137.913574,28.1801758 138.944824,29.2114258 139.927734,29.96875 C140.910645,30.7421875 141.893555,31.2739258 142.731445,31.3222656 L142.731445,31.3222656 Z M157.82959,31.3222656 L159.247559,28.9858398 C157.249512,28.3574219 156.943359,26.7460938 156.943359,24.7641602 L156.943359,24.7641602 L156.943359,19.4467773 C156.943359,15.6601562 155.058105,13.9521484 151.73877,13.9521484 C149.192871,13.9521484 147.903809,14.3549805 145.631836,15.2734375 L145.631836,15.2734375 L146.276367,17.4487305 C147.968262,16.5947266 149.515137,16.2563477 151.303711,16.2563477 C153.382324,16.2563477 154.461914,17.1586914 154.461914,19.4467773 L154.461914,19.4467773 L154.461914,21.5253906 C152.979492,21.3964844 151.996582,21.3320312 151.094238,21.3320312 C147.098145,21.3320312 144.713379,22.637207 144.713379,26.1660156 C144.713379,28.2446289 145.50293,29.5336914 146.598633,30.3071289 C147.678223,31.0805664 149.031738,31.3222656 150.143555,31.3222656 C152.222168,31.3222656 154.026855,30.4521484 155.299805,28.9858398 C155.831543,30.081543 156.65332,30.9355469 157.82959,31.3222656 L157.82959,31.3222656 Z M149.950195,29.0019531 C148.580566,29.0019531 147.178711,27.9545898 147.178711,26.1660156 C147.178711,24.8608398 147.855469,24.2163086 149.096191,23.894043 C150.336914,23.5878906 152.157715,23.6201172 154.461914,23.6362305 L154.461914,23.6362305 L154.461914,24.9897461 C154.461914,27.9707031 152.447754,29.0019531 149.950195,29.0019531 Z M174.297363,31.3222656 L175.715332,28.9858398 C173.717285,28.3574219 173.411133,26.7460938 173.411133,24.7641602 L173.411133,24.7641602 L173.411133,19.4467773 C173.411133,15.6601562 171.525879,13.9521484 168.206543,13.9521484 C165.660645,13.9521484 164.371582,14.3549805 162.099609,15.2734375 L162.099609,15.2734375 L162.744141,17.4487305 C164.436035,16.5947266 165.98291,16.2563477 167.771484,16.2563477 C169.850098,16.2563477 170.929688,17.1586914 170.929688,19.4467773 L170.929688,19.4467773 L170.929688,21.5253906 C169.447266,21.3964844 168.464355,21.3320312 167.562012,21.3320312 C163.565918,21.3320312 161.181152,22.637207 161.181152,26.1660156 C161.181152,28.2446289 161.970703,29.5336914 163.066406,30.3071289 C164.145996,31.0805664 165.499512,31.3222656 166.611328,31.3222656 C168.689941,31.3222656 170.494629,30.4521484 171.767578,28.9858398 C172.299316,30.081543 173.121094,30.9355469 174.297363,31.3222656 L174.297363,31.3222656 Z M166.417969,29.0019531 C165.04834,29.0019531 163.646484,27.9545898 163.646484,26.1660156 C163.646484,24.8608398 164.323242,24.2163086 165.563965,23.894043 C166.804688,23.5878906 168.625488,23.6201172 170.929688,23.6362305 L170.929688,23.6362305 L170.929688,24.9897461 C170.929688,27.9707031 168.915527,29.0019531 166.417969,29.0019531 Z M181.435547,31 L181.435547,18.4960938 C182.289551,17.190918 183.433594,16.2563477 184.899902,16.2563477 C185.592773,16.2563477 186.575684,16.4658203 187.204102,16.7719727 L187.204102,16.7719727 L188.074219,14.5322266 C187.6875,14.3549805 187.204102,14.1938477 186.70459,14.097168 C186.205078,14.0004883 185.705566,13.9521484 185.302734,13.9521484 C183.755859,13.9521484 182.43457,14.7416992 181.193848,16.1757812 L181.193848,16.1757812 L180.61377,14.2744141 L178.937988,14.2744141 L178.937988,31 L181.435547,31 Z M196.179199,31.3222656 C197.484375,31.3222656 198.88623,30.9516602 200.304199,30.3071289 L200.304199,30.3071289 L199.627441,28.019043 C198.531738,28.6474609 197.452148,29.0180664 196.485352,29.0180664 C195.631348,29.0180664 194.874023,28.7280273 194.342285,28.0512695 C193.810547,27.3745117 193.472168,26.3432617 193.472168,24.8125 L193.472168,24.8125 L193.472168,16.5947266 L198.112793,16.5947266 L198.112793,14.2744141 L193.472168,14.2744141 L193.472168,10.8422852 L193.311035,10.8422852 L190.974609,11.2773438 L190.974609,14.2744141 L189.121582,14.2744141 L189.121582,16.5947266 L190.974609,16.5947266 L190.974609,24.8125 C190.974609,27.1489258 191.538574,28.7924805 192.489258,29.8237305 C193.439941,30.8710938 194.712891,31.3222656 196.179199,31.3222656 Z M203.575195,31.3222656 C204.074707,31.3222656 204.541992,31.112793 204.880371,30.7905273 C205.202637,30.4682617 205.412109,30.0170898 205.412109,29.5175781 C205.412109,29.0180664 205.202637,28.5668945 204.880371,28.2446289 C204.541992,27.9223633 204.074707,27.7128906 203.575195,27.7128906 C203.075684,27.7128906 202.624512,27.9223633 202.302246,28.2446289 C201.963867,28.5668945 201.754395,29.0180664 201.754395,29.5175781 C201.754395,30.0170898 201.963867,30.4682617 202.302246,30.7905273 C202.624512,31.112793 203.075684,31.3222656 203.575195,31.3222656 Z M214.870605,31.3222656 C220.300781,31.3222656 223.297852,27.6645508 223.297852,22.5405273 C223.297852,17.8354492 220.623047,13.9521484 216.079102,13.9521484 C214.338867,13.9521484 212.953125,14.5161133 211.776855,15.418457 L211.776855,15.418457 L211.776855,7.66796875 L211.615723,7.66796875 L209.279297,7.99023438 L209.279297,30.1298828 C210.826172,30.7744141 212.791992,31.3222656 214.870605,31.3222656 Z M215.047852,29.0341797 C213.952148,29.0341797 212.872559,28.9536133 211.776855,28.5185547 L211.776855,28.5185547 L211.776855,18.0932617 C212.630859,16.8686523 214.064941,16.2724609 215.740723,16.2724609 C219.237305,16.2724609 220.800293,18.8989258 220.800293,22.3149414 C220.800293,26.2788086 218.641113,29.0341797 215.047852,29.0341797 Z M233.642578,31.3222656 C235.189453,31.3222656 236.704102,30.9838867 238.444336,30.1298828 L238.444336,30.1298828 L238.444336,27.8256836 L238.395996,27.8095703 C236.865234,28.5830078 235.382812,29.0019531 233.884277,29.0019531 C230.693848,29.0019531 228.583008,26.762207 228.357422,23.265625 L228.357422,23.265625 L238.782715,23.265625 L238.782715,21.0097656 C238.782715,17.1586914 237.348633,13.9521484 233.0625,13.9521484 C228.131836,13.9521484 225.875977,17.5776367 225.875977,22.4277344 C225.875977,27.8901367 228.79248,31.3222656 233.642578,31.3222656 Z M236.333496,21.0097656 L228.470215,21.0097656 C228.873047,18.3349609 230.387695,16.2724609 233.01416,16.2724609 C235.624512,16.2724609 236.30127,18.3994141 236.333496,21.0097656 L236.333496,21.0097656 Z"/>
</svg>
