<svg xmlns="http://www.w3.org/2000/svg" viewBox="0 0 151.94 118.8"><defs><style>.cls-1{fill:#ed1c24;}.cls-2{fill:#231f20;}</style></defs><g id="Layer_2" data-name="Layer 2"><g id="Layer_1-2" data-name="Layer 1"><polygon class="cls-1" points="38.02 19.01 38.02 0 19.01 0 19.01 19.01 19.01 19.01 0 19.01 0 38.02 19.01 38.02 19.01 38.02 19.01 57.02 38.02 57.02 38.02 38.02 57.02 38.02 57.02 19.01 38.02 19.01"/><path class="cls-2" d="M21.53,87.39v6.93c0,.39-.11.55-.5.55H19.34c-.37,0-.51-.16-.51-.55V76.5c0-.39.14-.55.51-.55H25c4.78,0,6.31,2,6.31,4.28v2.9c0,1.7-.86,3.23-3.25,3.89l3.34,7.3c.14.33-.11.55-.5.55H29.22c-.39,0-.45-.22-.62-.55l-3.14-6.93H21.53Zm0-9.13v6.82H25c2.5,0,3.61-.89,3.61-2.43v-2c0-1.5-1.11-2.42-3.61-2.42Z"/><path class="cls-2" d="M35.84,84.66c0-2.28,1.64-3.81,5.56-3.81S47,82.38,47,84.66v6.62c0,2.28-1.64,3.82-5.57,3.82s-5.56-1.54-5.56-3.82Zm8.49.22c0-1.2-.84-1.86-2.93-1.86s-2.92.66-2.92,1.86v6.18c0,1.2.84,1.86,2.92,1.86s2.93-.66,2.93-1.86Z"/><path class="cls-2" d="M60.13,93.48a7.39,7.39,0,0,1-4.62,1.62c-2.7,0-3.92-1.51-3.92-3.79V84.63c0-2.28,1.22-3.78,3.92-3.78a7.46,7.46,0,0,1,4.57,1.58V76c0-.39.11-.56.5-.56h1.61c.39,0,.53.17.53.56V94.32c0,.39-.14.55-.53.55H60.72c-.39,0-.5-.16-.53-.55Zm-5.9-2.59c0,1,.48,1.81,2.06,1.81a6.65,6.65,0,0,0,3.79-1.42V84.69a6.44,6.44,0,0,0-3.79-1.45c-1.58,0-2.06.83-2.06,1.81Z"/><path class="cls-2" d="M78.28,88.05c0,.34-.14.51-.48.51H70.23v2.55c0,1.15.56,1.87,2.79,1.87s2.78-.72,2.78-1.87v-.3c0-.36.14-.53.53-.53h1.42a.46.46,0,0,1,.53.53v.47c0,2.28-1.37,3.82-5.32,3.82s-5.31-1.54-5.31-3.82V84.66c0-2.28,1.41-3.81,5.37-3.81s5.26,1.53,5.26,3.81Zm-8-1.47H75.8V84.83C75.8,83.71,75.1,83,73,83s-2.79.75-2.79,1.87Z"/><path class="cls-2" d="M103.38,94.34c.19.25.11.53-.25.53h-2.2a1,1,0,0,1-.81-.53l-6.23-7.87h-.7v7.87c0,.37-.14.53-.53.53H91c-.37,0-.51-.16-.51-.53V76.48c0-.37.14-.53.51-.53h1.69c.39,0,.53.16.53.53v8h.67l5.82-8a1.15,1.15,0,0,1,.86-.53h1.84c.36,0,.44.25.25.53l-6.46,8.79Z"/><path class="cls-2" d="M114.45,81.37v1.28c0,.39-.19.53-.55.56A7.72,7.72,0,0,0,109.58,85v9.33c0,.39-.14.55-.5.55h-1.61c-.39,0-.53-.16-.53-.55V81.6c0-.36.14-.53.53-.53h1.47c.39,0,.5.17.53.53l.09,1.19a6.36,6.36,0,0,1,4.34-1.94C114.26,80.85,114.45,81,114.45,81.37Z"/><path class="cls-2" d="M126.34,93.51a6.67,6.67,0,0,1-4.46,1.59c-2.56,0-3.92-1.48-3.92-3.54V81.62c0-.38.14-.55.5-.55h1.61c.37,0,.53.17.53.55v9.27c0,1.17.53,1.84,2.06,1.84a5.8,5.8,0,0,0,3.62-1.39V81.62c0-.38.14-.55.5-.55h1.64c.37,0,.5.17.5.55V94.34c0,.39-.13.53-.5.53h-1.5c-.39,0-.5-.14-.53-.53Z"/><path class="cls-2" d="M136.8,78.48c0,.36-.14.53-.5.53h-1.62c-.39,0-.52-.17-.52-.53V76c0-.39.13-.56.52-.56h1.62c.36,0,.5.17.5.56Zm0,15.84c0,.39-.14.55-.5.55h-1.62c-.39,0-.52-.16-.52-.55V81.62c0-.38.13-.55.52-.55h1.62c.36,0,.5.17.5.55Z"/><path class="cls-2" d="M149.32,84.27c0-1-.92-1.48-2.64-1.48s-2.59.48-2.59,1.48v.47c0,.73.67,1.12,1.17,1.28l4.17,1.45c1.53.53,2.51,1.42,2.51,2.73v1.55c0,1.73-1.53,3.35-5.29,3.35s-5.26-1.62-5.26-3.35v-.69c0-.33.14-.5.47-.5h1.48c.36,0,.47.17.47.5v.58c0,1,1.06,1.48,2.84,1.48s2.84-.47,2.84-1.48v-.75c0-.67-.56-1-1.48-1.33l-4.17-1.45a3.18,3.18,0,0,1-2.17-2.81v-1c0-1.73,1.28-3.42,5-3.42s5,1.69,5,3.42v.67c0,.36-.11.5-.5.5H149.8c-.34,0-.48-.14-.48-.5Z"/><path class="cls-2" d="M25,118.58a.63.63,0,0,1-.66-.53l-5.4-17.87c-.11-.36,0-.53.39-.53h1.86c.36,0,.5.2.61.53l3.46,11.55a26.37,26.37,0,0,1,.63,3.4s.39-2.34.7-3.34l3.48-11.61c.11-.33.25-.53.61-.53h1.7c.39,0,.53.17.42.53l-5.4,17.87a.64.64,0,0,1-.67.53Z"/><path class="cls-2" d="M38.31,118c0,.39-.14.56-.5.56H36.2c-.39,0-.53-.17-.53-.56V99.68c0-.39.14-.56.53-.56h1.61c.36,0,.5.17.5.56Z"/><path class="cls-2" d="M42.52,108.31c0-2.23,1.44-3.76,5.26-3.76S53,106.08,53,108.31V118c0,.39-.14.56-.5.56H51.09c-.39,0-.5-.17-.53-.56l-.06-.81a7,7,0,0,1-4.39,1.59c-2.59,0-3.93-1.56-3.93-3.37V114.1c0-1.81,1.28-3.37,3.87-3.37h4.4v-2.14c0-1.14-.59-1.9-2.7-1.9S45,107.36,45,108.5v.23c0,.39-.14.55-.53.55H43c-.36,0-.5-.16-.5-.55Zm7.93,6.87v-2.39H46.61c-1.39,0-1.84.61-1.84,1.7V115c0,1.09.61,1.56,2,1.56A6.14,6.14,0,0,0,50.45,115.18Z"/><path class="cls-2" d="M57.07,108.31c0-2.23,1.45-3.76,5.26-3.76s5.26,1.53,5.26,3.76V118c0,.39-.14.56-.5.56H65.64c-.39,0-.5-.17-.53-.56l0-.81a7,7,0,0,1-4.4,1.59c-2.59,0-3.92-1.56-3.92-3.37V114.1c0-1.81,1.28-3.37,3.87-3.37H65v-2.14c0-1.14-.58-1.9-2.7-1.9s-2.75.67-2.75,1.81v.23c0,.39-.14.55-.53.55H57.57c-.36,0-.5-.16-.5-.55ZM65,115.18v-2.39H61.16c-1.39,0-1.83.61-1.83,1.7V115c0,1.09.61,1.56,2,1.56A6.1,6.1,0,0,0,65,115.18Z"/><path class="cls-2" d="M73.74,104.77c.39,0,.5.17.53.53l0,.89a7,7,0,0,1,4.62-1.64c2.59,0,3.93,1.5,3.93,3.56V118c0,.39-.14.56-.5.56H80.75c-.36,0-.53-.17-.53-.56v-9.27c0-1.14-.52-1.83-2.06-1.83a6.3,6.3,0,0,0-3.78,1.42V118c0,.39-.14.56-.5.56H72.26c-.39,0-.52-.17-.52-.56V105.3c0-.36.13-.53.52-.53Z"/><path class="cls-2" d="M95.25,117.19a7.39,7.39,0,0,1-4.62,1.61c-2.7,0-3.92-1.5-3.92-3.78v-6.68c0-2.29,1.22-3.79,3.92-3.79a7.4,7.4,0,0,1,4.57,1.59V99.68c0-.39.11-.56.5-.56h1.61c.39,0,.53.17.53.56V118c0,.39-.14.56-.53.56H95.84c-.39,0-.51-.17-.53-.56Zm-5.9-2.59c0,1,.48,1.81,2.06,1.81A6.72,6.72,0,0,0,95.2,115v-6.6a6.5,6.5,0,0,0-3.79-1.45c-1.58,0-2.06.84-2.06,1.81Z"/><path class="cls-2" d="M112.48,111.76c0,.33-.14.5-.48.5h-7.57v2.56c0,1.14.56,1.87,2.79,1.87S110,116,110,114.82v-.31c0-.36.14-.52.53-.52H112c.36,0,.53.16.53.52V115c0,2.28-1.37,3.81-5.32,3.81s-5.31-1.53-5.31-3.81v-6.63c0-2.28,1.42-3.81,5.37-3.81s5.26,1.53,5.26,3.81Zm-8-1.48H110v-1.75c0-1.11-.7-1.86-2.78-1.86s-2.79.75-2.79,1.86Z"/><path class="cls-2" d="M123.8,105.08v1.28c0,.39-.19.53-.55.56a7.65,7.65,0,0,0-4.32,1.78V118c0,.39-.14.56-.5.56h-1.61c-.39,0-.53-.17-.53-.56V105.3c0-.36.14-.53.53-.53h1.47c.39,0,.5.17.53.53l.09,1.2a6.36,6.36,0,0,1,4.34-2C123.61,104.55,123.8,104.72,123.8,105.08Z"/><path class="cls-2" d="M136.88,111.76c0,.33-.14.5-.47.5h-7.57v2.56c0,1.14.56,1.87,2.78,1.87s2.79-.73,2.79-1.87v-.31c0-.36.13-.52.52-.52h1.42c.37,0,.53.16.53.52V115c0,2.28-1.36,3.81-5.31,3.81s-5.32-1.53-5.32-3.81v-6.63c0-2.28,1.42-3.81,5.37-3.81s5.26,1.53,5.26,3.81Zm-8-1.48h5.57v-1.75c0-1.11-.7-1.86-2.79-1.86s-2.78.75-2.78,1.86Z"/><path class="cls-2" d="M142.7,104.77c.39,0,.5.17.53.53l.05.89a7,7,0,0,1,4.62-1.64c2.59,0,3.93,1.5,3.93,3.56V118c0,.39-.14.56-.5.56h-1.62c-.36,0-.53-.17-.53-.56v-9.27c0-1.14-.53-1.83-2.06-1.83a6.3,6.3,0,0,0-3.78,1.42V118c0,.39-.14.56-.5.56h-1.62c-.39,0-.53-.17-.53-.56V105.3c0-.36.14-.53.53-.53Z"/></g></g></svg>